<svg xmlns="http://www.w3.org/2000/svg" viewBox="0 0 24 24"><path d="M15 7.25c-4.27 0-7.75 3.48-7.75 7.75s3.48 7.75 7.75 7.75 7.75-3.48 7.75-7.75S19.27 7.25 15 7.25m-1.14 9.72c.29.29.29.77 0 1.06-.15.15-.34.22-.53.22s-.38-.07-.53-.22l-2.5-2.5a.754.754 0 0 1 0-1.06l2.5-2.5c.29-.29.77-.29 1.06 0s.29.77 0 1.06L11.89 15zm5.83-1.44-2.5 2.5c-.15.15-.34.22-.53.22s-.38-.07-.53-.22a.754.754 0 0 1 0-1.06L18.1 15l-1.97-1.97c-.29-.29-.29-.77 0-1.06s.77-.29 1.06 0l2.5 2.5c.29.29.29.77 0 1.06M8.68 8.23a9.3 9.3 0 0 0-2.47 3.88c-2.96-.26-4.66-.84-4.97-1.2V6.56C3.17 7.87 6.5 8.19 8.68 8.23M6.46 18.57c-2.61-.3-5.22-1.03-5.22-2.57v-3.4c1.22.53 3 .81 4.61.97a9.25 9.25 0 0 0 .61 5M9.5 1.25c-3.06 0-8.25.58-8.25 2.75S6.44 6.75 9.5 6.75s8.25-.58 8.25-2.75-5.19-2.75-8.25-2.75"/></svg>