<svg xmlns="http://www.w3.org/2000/svg" width="64" height="64" fill="none"><path d="M2 14C2 7.373 7.373 2 14 2h36c6.627 0 12 5.373 12 12v28c0 6.627-5.373 12-12 12H39.908l-6.403 7.317a2 2 0 0 1-3.01 0L24.093 54H14C7.373 54 2 48.627 2 42zm30 0a2 2 0 0 1 1.95 1.557l1.107 4.866a6 6 0 0 0 4.52 4.52l4.867 1.107a2 2 0 0 1 0 3.9l-4.867 1.107a6 6 0 0 0-4.52 4.52l-1.107 4.866a2 2 0 0 1-3.9 0l-1.107-4.866a6 6 0 0 0-4.52-4.52l-4.866-1.107a2 2 0 0 1 0-3.9l4.866-1.107a6 6 0 0 0 4.52-4.52l1.107-4.866A2 2 0 0 1 32 14" clip-rule="evenodd"/></svg>