<svg xmlns="http://www.w3.org/2000/svg" viewBox="0 0 24 24"><path d="M22.75 4v1.25H1.25V4c0-1.52 1.23-2.75 2.75-2.75h16c1.52 0 2.75 1.23 2.75 2.75m0 2.75V20c0 1.52-1.23 2.75-2.75 2.75H4c-1.52 0-2.75-1.23-2.75-2.75V6.75zM6.89 14l1.97-1.97c.3-.29.3-.77 0-1.06a.754.754 0 0 0-1.06 0l-2.5 2.5c-.29.29-.29.77 0 1.06l2.5 2.5c.15.15.34.22.53.22s.39-.07.53-.22c.3-.29.3-.77 0-1.06zm6.55-4.72c-.4-.12-.81.11-.93.5l-2.45 8a.75.75 0 0 0 .72.97c.32 0 .62-.21.71-.53l2.45-8a.75.75 0 0 0-.5-.94m5.26 4.19-2.5-2.5a.754.754 0 0 0-1.06 0c-.3.29-.3.77 0 1.06L17.11 14l-1.97 1.97c-.3.29-.3.77 0 1.06.14.15.33.22.53.22s.38-.07.53-.22l2.5-2.5c.29-.29.29-.77 0-1.06"/></svg>