<?xml version="1.0" encoding="UTF-8" standalone="no"?>
<!DOCTYPE svg PUBLIC "-//W3C//DTD SVG 1.1//EN" "http://www.w3.org/Graphics/SVG/1.1/DTD/svg11.dtd">
<svg width="100%" height="100%" viewBox="0 0 200 200" version="1.1" xmlns="http://www.w3.org/2000/svg" xmlns:xlink="http://www.w3.org/1999/xlink" xml:space="preserve" xmlns:serif="http://www.serif.com/" style="fill-rule:evenodd;clip-rule:evenodd;stroke-linejoin:round;stroke-miterlimit:2;">
    <path d="M200,50L200,150C200,177.596 177.596,200 150,200L50,200C22.404,200 0,177.596 0,150L0,50C0,22.404 22.404,0 50,0L150,0C177.596,0 200,22.404 200,50Z" style="fill:white;"/>
    <g transform="matrix(1.10641,0,0,1.10641,-4.25621,-8.31075)">
        <g transform="matrix(0.707107,0.707107,-0.707107,0.707107,91.3995,-38.3121)">
            <path d="M34.887,66.846L49.193,85.173C43.549,89.579 40.25,96.34 40.25,103.5C40.25,116.332 50.668,126.75 63.5,126.75C76.341,126.75 86.75,116.341 86.75,103.5L110,103.5C110,129.181 89.181,150 63.5,150C37.836,150 17,129.164 17,103.5C17,89.18 23.598,75.658 34.887,66.846Z" style="fill:rgb(38,38,38);"/>
        </g>
        <g transform="matrix(-0.707107,-0.707107,0.707107,-0.707107,97.0593,234.1)">
            <path d="M34.887,66.846L49.193,85.173C43.549,89.579 40.25,96.34 40.25,103.5C40.25,116.332 50.668,126.75 63.5,126.75C76.341,126.75 86.75,116.341 86.75,103.5L110,103.5C110,129.181 89.181,150 63.5,150C37.836,150 17,129.164 17,103.5C17,89.18 23.598,75.658 34.887,66.846Z" style="fill:rgb(38,38,38);"/>
        </g>
    </g>
</svg>
