<svg xmlns="http://www.w3.org/2000/svg" xml:space="preserve" style="fill-rule:evenodd;clip-rule:evenodd;stroke-linejoin:round;stroke-miterlimit:2" viewBox="0 0 175 146"><path d="M253 0h175v146H253z" style="fill:none" transform="translate(-253)"/><path d="m34.887 66.846 14.306 18.327A23.25 23.25 0 0 0 40.25 103.5c0 12.832 10.418 23.25 23.25 23.25 12.841 0 23.25-10.409 23.25-23.25H110c0 25.681-20.819 46.5-46.5 46.5-25.664 0-46.5-20.836-46.5-46.5a46.5 46.5 0 0 1 17.887-36.654" style="fill:#262626" transform="rotate(45 135.976 62.993)scale(1.10641)"/><path d="m34.887 66.846 14.306 18.327A23.25 23.25 0 0 0 40.25 103.5c0 12.832 10.418 23.25 23.25 23.25 12.841 0 23.25-10.409 23.25-23.25H110c0 25.681-20.819 46.5-46.5 46.5-25.664 0-46.5-20.836-46.5-46.5a46.5 46.5 0 0 1 17.887-36.654" style="fill:#262626" transform="rotate(-135 91.645 93.08)scale(1.10641)"/></svg>