<?xml version="1.0" encoding="UTF-8" standalone="no"?>
<!DOCTYPE svg PUBLIC "-//W3C//DTD SVG 1.1//EN" "http://www.w3.org/Graphics/SVG/1.1/DTD/svg11.dtd">
<svg width="100%" height="100%" viewBox="0 0 34 34" version="1.1" xmlns="http://www.w3.org/2000/svg"
    xmlns:xlink="http://www.w3.org/1999/xlink" xml:space="preserve"
    xmlns:serif="http://www.serif.com/"
    style="fill-rule:evenodd;clip-rule:evenodd;stroke-linejoin:round;stroke-miterlimit:2;">
    <g id="Artboard1" transform="matrix(1,0,0,1,0.00770865,0)">
        <rect x="-0.008" y="0" width="33.008" height="32" style="fill:none;"/>
        <clipPath id="_clip1">
            <rect x="-0.008" y="0" width="33.008" height="32"/>
        </clipPath>
        <g clip-path="url(#_clip1)">
            <g transform="matrix(1,0,0,1,-49.4992,-50.4915)">
                <path d="M50.5,48C51.88,48 53,49.12 53,50.5C53,51.88 51.88,53 50.5,53C49.12,53 48,51.88 48,50.5C48,49.12 49.12,48 50.5,48ZM50.5,48.6C51.549,48.6 52.4,49.451 52.4,50.5C52.4,51.549 51.549,52.4 50.5,52.4C49.451,52.4 48.6,51.549 48.6,50.5C48.6,49.451 49.451,48.6 50.5,48.6Z"/>
            </g>
            <g transform="matrix(2.40649,0,0,2.40649,-120.543,-121.503)">
                <path d="M50.5,48C51.88,48 53,49.12 53,50.5C53,51.88 51.88,53 50.5,53C49.12,53 48,51.88 48,50.5C48,49.12 49.12,48 50.5,48ZM50.5,48.253C51.74,48.253 52.747,49.26 52.747,50.5C52.747,51.74 51.74,52.747 50.5,52.747C49.26,52.747 48.253,51.74 48.253,50.5C48.253,49.26 49.26,48.253 50.5,48.253Z"/>
            </g>
            <g transform="matrix(4.29578,0,0,4.29578,-215.952,-216.928)">
                <path d="M50.5,48C51.88,48 53,49.12 53,50.5C53,51.88 51.88,53 50.5,53C49.12,53 48,51.88 48,50.5C48,49.12 49.12,48 50.5,48ZM50.5,48.195C51.772,48.195 52.805,49.228 52.805,50.5C52.805,51.772 51.772,52.805 50.5,52.805C49.228,52.805 48.195,51.772 48.195,50.5C48.195,49.228 49.228,48.195 50.5,48.195Z"/>
            </g>
            <g transform="matrix(7.20308,0,0,7.20308,-362.755,-363.747)">
                <path d="M50.5,48C51.88,48 53,49.12 53,50.5C53,51.88 51.88,53 50.5,53C49.12,53 48,51.88 48,50.5C48,49.12 49.12,48 50.5,48ZM50.5,48.137C51.804,48.137 52.863,49.196 52.863,50.5C52.863,51.804 51.804,52.863 50.5,52.863C49.196,52.863 48.137,51.804 48.137,50.5C48.137,49.196 49.196,48.137 50.5,48.137Z"/>
            </g>
            <g transform="matrix(12.5966,0,0,12.5966,-635.127,-636.119)">
                <path d="M50.5,48C51.88,48 53,49.12 53,50.5C53,51.88 51.88,53 50.5,53C49.12,53 48,51.88 48,50.5C48,49.12 49.12,48 50.5,48ZM50.5,48.079C51.836,48.079 52.921,49.164 52.921,50.5C52.921,51.836 51.836,52.921 50.5,52.921C49.164,52.921 48.079,51.836 48.079,50.5C48.079,49.164 49.164,48.079 50.5,48.079Z"/>
            </g>
        </g>
    </g>
</svg>