<?xml version="1.0" encoding="UTF-8" standalone="no"?>
<!DOCTYPE svg PUBLIC "-//W3C//DTD SVG 1.1//EN" "http://www.w3.org/Graphics/SVG/1.1/DTD/svg11.dtd">
<svg width="100%" height="100%" viewBox="0 0 100 100" version="1.1" xmlns="http://www.w3.org/2000/svg" xmlns:xlink="http://www.w3.org/1999/xlink" xml:space="preserve" xmlns:serif="http://www.serif.com/" style="fill-rule:evenodd;clip-rule:evenodd;stroke-linejoin:round;stroke-miterlimit:2;">
    <g transform="matrix(2.5,0,0,0.1,-1.13687e-13,-1)">
        <rect x="0" y="10" width="40" height="10"/>
    </g>
    <g transform="matrix(2.5,0,0,0.1,-6.39488e-14,59)">
        <rect x="0" y="10" width="40" height="10"/>
    </g>
    <g transform="matrix(2.5,0,0,0.1,-8.52651e-14,29)">
        <rect x="0" y="10" width="40" height="10"/>
    </g>
    <g transform="matrix(2.5,0,0,0.1,-5.68434e-14,89)">
        <rect x="0" y="10" width="40" height="10"/>
    </g>
    <g transform="matrix(2.5,0,0,0.1,-1.13687e-13,9)">
        <rect x="0" y="10" width="40" height="10"/>
    </g>
    <g transform="matrix(2.5,0,0,0.1,-8.52651e-14,69)">
        <rect x="0" y="10" width="40" height="10"/>
    </g>
    <g transform="matrix(2.5,0,0,0.1,2.84217e-14,39)">
        <rect x="0" y="10" width="40" height="10"/>
    </g>
    <g transform="matrix(2.5,0,0,0.1,-8.52651e-14,19)">
        <rect x="0" y="10" width="40" height="10"/>
    </g>
    <g transform="matrix(2.5,0,0,0.1,-5.68434e-14,79)">
        <rect x="0" y="10" width="40" height="10"/>
    </g>
    <g transform="matrix(2.5,0,0,0.1,-5.68434e-14,49)">
        <rect x="0" y="10" width="40" height="10"/>
    </g>
</svg>
