<svg xmlns="http://www.w3.org/2000/svg" xml:space="preserve" style="fill-rule:evenodd;clip-rule:evenodd;stroke-linecap:round;stroke-linejoin:round;stroke-miterlimit:1.5" viewBox="0 0 1040 250"><g transform="matrix(.94546 0 0 .89286 -302.545 -1000)"><path d="M320 1120h1100v280H320z" style="fill:none"/><clipPath id="a"><path d="M320 1120h1100v280H320z"/></clipPath><g clip-path="url(#a)"><path d="M202.38 1207.31 260 1370H90l57.62-162.69z" style="fill:#c1c3c4;stroke:#000;stroke-width:.81px" transform="matrix(3.60857 0 0 1.16667 239.288 -180.414)"/><path d="m623.322 1220-4.766 6.29-16.293-2.17-10.5 4.78-13.035-4.78-14.482 3.91-8.568-8.03 33.822-35z" style="fill:#fff;stroke:#000;stroke-width:.81px" transform="matrix(2.92123 0 0 2.57694 -851.279 -1915.757)"/><path d="M202.38 1207.31 260 1370H90l57.62-162.69z" style="fill:#929697;stroke:#000;stroke-width:1.47px" transform="matrix(1.8665 0 0 .98 819.152 65.625)"/><path d="m623.322 1220-12.647 3.63-14-3.63h-14l-14 3.11-12.997-3.11 33.822-35z" style="fill:#fff;stroke:#000;stroke-width:1.21px" transform="matrix(1.51098 0 0 2.16464 255.065 -1392.067)"/><path d="M202.38 1207.31 260 1370H90l57.62-162.69z" style="fill:#929697;stroke:#000;stroke-width:1.47px" transform="matrix(1.8665 0 0 .98 248 64.124)"/><path d="m623.322 1220-12.647 3.81-11.9-3.11h-18.2l-15.4 3.62-9.497-4.32 33.822-35z" style="fill:#fff;stroke:#000;stroke-width:1.21px" transform="matrix(1.51098 0 0 2.16464 -316.086 -1393.568)"/><path d="M202.38 1207.31 260 1370H90l57.62-162.69z" style="stroke:#000;stroke-width:2.21px" transform="matrix(1.30655 0 0 .50706 1069.98 710.541)"/><path d="m623.322 1220-17.072 5-16.75-5-14.25 6-19.572-6 33.822-35z" style="fill:#fff;stroke:#000;stroke-width:2.05px" transform="matrix(1.05769 0 0 1.12 675.12 -43.68)"/><path d="M202.38 1207.31 260 1370H90l57.62-162.69z" style="stroke:#000;stroke-width:2.07px" transform="matrix(1.30655 0 0 .74667 816.664 385.292)"/><path d="m623.322 1220-13.572 4.83-20.25-4.83-19.75 4.83-14.072-4.83 33.822-35z" style="fill:#fff;stroke:#000;stroke-width:1.63px" transform="matrix(1.05769 0 0 1.64924 421.803 -725.33)"/><path d="M202.38 1207.31 260 1370H90l57.62-162.69z" style="stroke:#000;stroke-width:2.07px" transform="matrix(1.30655 0 0 .74667 467.626 385.292)"/><path d="m623.322 1220-18.572 4.83-15.25-3.39-14.75 4.07-19.072-5.51 33.822-35z" style="fill:#fff;stroke:#000;stroke-width:1.63px" transform="matrix(1.05769 0 0 1.64924 72.765 -725.33)"/><path d="M202.38 1207.31 260 1370H90l57.62-162.69z" style="stroke:#000;stroke-width:2.21px" transform="matrix(1.30655 0 0 .50706 208.492 710.541)"/><path d="m623.322 1220-13.572 10-20.25-7-20.75 5-13.072-8 33.822-35z" style="fill:#fff;stroke:#000;stroke-width:2.05px" transform="matrix(1.05769 0 0 1.12 -186.37 -43.68)"/></g></g></svg>